# xmcd CD database file
#
# Track frame offsets:
#	150
#	11928
#	25735
#	37774
#	53248
#	68003
#	86234
#	101742
#	112675
#	122582
#	135080
#	152345
#	167337
#	179546
#	196463
#
# Disc length: 2771 seconds
#
# Revision: 0
# Processed by: cddbd v1.5.2PL0 Copyright (c) Steve Scherf et al.
# Submitted via: CDex 1.51
#
DISCID=b10ad10f
DTITLE=Cluster Sisters - Cluster Sisters
DYEAR=1900
DGENRE=Jazz
TTITLE0=Boogie Woogie Bugle Boy
TTITLE1=Tuxedo Junction
TTITLE2=Everybody Loves My Baby
TTITLE3=It Don't Mean a Thing (If It Ain't Got That Swing)
TTITLE4=Minnie The Moocher
TTITLE5=A História de Lily Braun
TTITLE6=hol Tight, hold Tight (Want Some Seafood Mama)
TTITLE7=Bei Mir Bist Du Schon
TTITLE8=Solid Potato Salad
TTITLE9=Crazy People
TTITLE10=Route 66 (Bobby Troup)
TTITLE11=Mule Skinner Blues
TTITLE12=Tico Tico No Fubá
TTITLE13=Sing Sing Sing
TTITLE14=What a Wonderful World (bonus)
EXTD=
EXTT0=
EXTT1=
EXTT2=
EXTT3=
EXTT4=
EXTT5=
EXTT6=
EXTT7=
EXTT8=
EXTT9=
EXTT10=
EXTT11=
EXTT12=
EXTT13=
EXTT14=
PLAYORDER=
